<svg xmlns="http://www.w3.org/2000/svg" fill="none" viewBox="0 0 95 20">
  <path fill="#121417" d="M9.35156 13.0566V15H2.21289v-1.9434h7.13867ZM2.89648.78125V15H.445312V.78125H2.89648ZM15.2699 15.1953c-.7812 0-1.4876-.1269-2.1191-.3808-.625-.2605-1.1589-.6218-1.6016-1.084-.4362-.4623-.7715-1.0059-1.0058-1.6309-.2344-.625-.3516-1.2988-.3516-2.0215v-.3906c0-.82682.1204-1.57552.3613-2.24609.2409-.67058.5762-1.24349 1.0059-1.71875.4297-.48177.9375-.84961 1.5234-1.10352.586-.25391 1.2207-.38086 1.9043-.38086.7552 0 1.416.12695 1.9824.38086.5664.25391 1.0352.61198 1.4063 1.07422.3776.45573.6575.99935.8398 1.63086.1888.63151.2832 1.32812.2832 2.08984v1.00584h-8.164V8.73047h5.8398v-.18555c-.013-.42318-.0976-.82031-.2539-1.1914-.1497-.3711-.3808-.67058-.6933-.89844-.3125-.22787-.7292-.3418-1.25-.3418-.3907 0-.739.08464-1.045.25391-.2994.16276-.5501.40039-.7519.71289-.2018.3125-.3581.6901-.4688 1.13281-.1041.4362-.1562.92773-.1562 1.47461v.3906c0 .4623.0618.892.1855 1.2891.1302.3906.319.7324.5664 1.0254.2474.2929.5469.5241.8985.6933.3515.1628.7519.2442 1.2011.2442.5664 0 1.071-.114 1.5137-.3418.4427-.2279.8268-.5501 1.1524-.9668l1.2402 1.2012c-.2279.332-.5241.651-.8887.957-.3646.2995-.8105.5436-1.3379.7324-.5208.1888-1.1263.2832-1.8164.2832Zm11.6215-2.3144V7.8418c0-.37761-.0684-.70313-.2051-.97657-.1367-.27343-.345-.48502-.625-.63476-.2734-.14974-.6185-.22461-1.0351-.22461-.3841 0-.7162.0651-.9961.19531-.28.13021-.4981.30599-.6543.52735-.1563.22135-.2344.472-.2344.75195h-2.3437c0-.41667.1009-.82031.3027-1.21094.2018-.39062.4948-.73893.8789-1.04492.3841-.30599.8431-.54688 1.377-.72266.5338-.17578 1.1328-.26367 1.7968-.26367.7943 0 1.4974.13346 2.1094.40039.6185.26693 1.1035.67057 1.4551 1.21094.3581.53385.5371 1.20443.5371 2.01172v4.69727c0 .4818.0325.9147.0976 1.2988.0717.3776.1726.7064.3028.9864V15H27.243c-.1107-.2539-.1986-.5762-.2637-.9668-.0586-.3971-.0879-.7812-.0879-1.1523Zm.3418-4.30668.0195 1.45508h-1.6894c-.4362 0-.8203.0423-1.1524.1269-.332.0782-.6087.1954-.83.3516-.2214.1563-.3874.3451-.4981.5664-.1107.2214-.166.472-.166.752 0 .2799.0651.5371.1953.7715.1302.2278.319.4069.5664.5371.2539.1302.5599.1953.918.1953.4818 0 .9017-.0977 1.2598-.293.3645-.2018.651-.446.8593-.7324.2084-.293.319-.5697.3321-.8301l.7617 1.0449c-.0781.267-.2116.5534-.4004.8594-.1888.306-.4362.599-.7422.8789-.2995.2734-.6608.4981-1.084.6738-.4167.1758-.8984.2637-1.4453.2637-.6901 0-1.3053-.1367-1.8457-.4101-.5404-.28-.9635-.6543-1.2695-1.1231-.306-.4753-.459-1.0124-.459-1.6113 0-.5599.1041-1.0547.3125-1.4844.2148-.4362.5273-.80078.9375-1.09374.4166-.29297.9245-.51433 1.5234-.66407.599-.15625 1.2826-.23437 2.0508-.23437h1.8457Zm6.4457-2.12891V15h-2.3535V4.43359h2.2461l.1074 2.01172Zm3.2324-2.08008-.0195 2.1875c-.1432-.02604-.2995-.04557-.4688-.05859-.1627-.01302-.3255-.01953-.4882-.01953-.4037 0-.7585.05859-1.0645.17578-.306.11068-.5631.27344-.7715.48828-.2018.20834-.358.46224-.4687.76172-.1107.29948-.1758.63477-.1953 1.00586l-.5371.03906c0-.66406.0651-1.27929.1953-1.8457.1302-.56641.3255-1.06445.5859-1.49414.2669-.42969.599-.76498.9961-1.00586.4036-.24089.8691-.36133 1.3965-.36133.1432 0 .2962.01302.459.03906.1692.02605.2962.05534.3808.08789Zm3.4086 2.32422V15h-2.3535V4.43359h2.2168l.1367 2.25586ZM39.9 9.32617l-.7617-.00976c.0065-.7487.1107-1.43555.3125-2.06055.2083-.625.4948-1.16211.8594-1.61133.3711-.44922.8138-.79427 1.3281-1.03515.5143-.2474 1.0872-.3711 1.7187-.3711.5078 0 .9668.07162 1.377.21484.4167.13672.7715.36133 1.0644.67383.2995.3125.5274.7194.6836 1.22071.1563.49479.2344 1.10351.2344 1.82617V15h-2.3633V8.16406c0-.50781-.0748-.9082-.2246-1.20117-.1432-.29948-.3548-.51107-.6347-.63477-.2735-.1302-.6153-.19531-1.0254-.19531-.4037 0-.765.08464-1.084.25391-.319.16927-.5892.40039-.8106.69336-.2148.29297-.3808.63151-.498 1.01562-.1172.38412-.1758.79427-.1758 1.23047Zm17.9594 3.73043V15h-7.1387v-1.9434h7.1387ZM51.4043.78125V15h-2.4512V.78125h2.4512Zm10.2348 3.65234V15h-2.3633V4.43359h2.3633Zm-2.5196-2.77343c0-.35808.1172-.6543.3516-.888676.2409-.240885.5729-.361328.9961-.361328.4167 0 .7454.120443.9863.361328.2409.234376.3613.530596.3613.888676 0 .35156-.1204.64453-.3613.8789-.2409.23438-.5696.35156-.9863.35156-.4232 0-.7552-.11718-.9961-.35156-.2344-.23437-.3516-.52734-.3516-.8789Zm7.0317 5.02929V15h-2.3535V4.43359h2.2168l.1367 2.25586Zm-.4199 2.63672-.7618-.00976c.0065-.7487.1107-1.43555.3125-2.06055.2084-.625.4948-1.16211.8594-1.61133.3711-.44922.8138-.79427 1.3281-1.03515.5144-.2474 1.0873-.3711 1.7188-.3711.5078 0 .9668.07162 1.3769.21484.4167.13672.7715.36133 1.0645.67383.2995.3125.5273.7194.6836 1.22071.1562.49479.2344 1.10351.2344 1.82617V15h-2.3633V8.16406c0-.50781-.0749-.9082-.2246-1.20117-.1433-.29948-.3549-.51107-.6348-.63477-.2734-.1302-.6152-.19531-1.0254-.19531-.4036 0-.765.08464-1.084.25391-.319.16927-.5892.40039-.8105.69336-.2149.29297-.3809.63151-.4981 1.01562-.1172.38412-.1757.79427-.1757 1.23047Zm15.5863-4.89258h2.1387V14.707c0 .9506-.2019 1.7578-.6055 2.4219-.4037.6641-.9668 1.1686-1.6895 1.5137-.7226.3515-1.5592.5273-2.5097.5273-.4037 0-.8529-.0586-1.3477-.1758-.4883-.1171-.9635-.3059-1.4258-.5664-.4557-.2539-.8366-.5892-1.1426-1.0058l1.1036-1.3867c.3776.4492.7942.778 1.25.9863.4557.2083.9342.3125 1.4355.3125.5404 0 .9994-.1009 1.377-.3028.3841-.1953.6803-.485.8886-.8691.2084-.3841.3125-.8529.3125-1.4062V6.82617l.2149-2.39258Zm-7.1778 5.40039v-.20507c0-.80079.0977-1.52995.293-2.1875.1953-.66407.4753-1.23373.8399-1.70899.3645-.48177.8073-.84961 1.3281-1.10351.5208-.26042 1.11-.39063 1.7676-.39063.6836 0 1.2662.1237 1.748.3711.4883.24739.8952.60221 1.2207 1.06445.3255.45573.5794 1.0026.7617 1.64062.1888.63151.3288 1.33464.42 2.10938v.65427c-.0847.7552-.2279 1.4453-.4297 2.0703-.2019.625-.4688 1.1654-.8008 1.6211-.332.4558-.7422.8073-1.2305 1.0547-.4818.2474-1.0514.3711-1.709.3711-.6445 0-1.2272-.1335-1.748-.4004-.5143-.2669-.957-.6413-1.3281-1.123-.3646-.4818-.6446-1.0482-.8399-1.6992-.1953-.6576-.293-1.3705-.293-2.13872Zm2.3536-.20507v.20507c0 .48182.0455.93102.1367 1.34762.0976.4167.2441.7845.4394 1.1036.2019.3125.4558.5599.7618.7421.3125.1758.6803.2637 1.1035.2637.5534 0 1.0058-.1172 1.3574-.3515.3581-.2344.6315-.5502.8203-.9473.1953-.4037.332-.8529.4102-1.3477V8.87695c-.0391-.38411-.1205-.74218-.2442-1.07422-.1172-.33203-.2767-.62174-.4785-.86914-.2018-.2539-.4557-.44921-.7617-.58593-.306-.14323-.6673-.21485-1.084-.21485-.4232 0-.791.09115-1.1035.27344-.3125.18229-.5697.43294-.7715.75195-.1953.31901-.3418.69011-.4395 1.11328-.0976.42318-.1464.87566-.1464 1.35743Zm8.555.20507v-.2246c0-.76172.1107-1.4681.3321-2.11915.2213-.65755.5403-1.22721.957-1.70898.4232-.48828.9375-.86589 1.543-1.13281.6119-.27344 1.3021-.41016 2.0703-.41016.7747 0 1.4648.13672 2.0703.41016.612.26692 1.1296.64453 1.5527 1.13281.4232.48177.7455 1.05143.9668 1.70898.2214.65105.3321 1.35743.3321 2.11915v.2246c0 .76172-.1107 1.46812-.3321 2.11912-.2213.6511-.5436 1.2207-.9668 1.709-.4231.4818-.9375.8594-1.5429 1.1328-.6055.2669-1.2924.4004-2.0606.4004-.7747 0-1.4681-.1335-2.0801-.4004-.6054-.2734-1.1198-.651-1.5429-1.1328-.4232-.4883-.7455-1.0579-.9668-1.709-.2214-.651-.3321-1.3574-.3321-2.11912Zm2.3536-.2246v.2246c0 .47522.0488.92452.1464 1.34762.0977.4232.2507.7943.459 1.1133.2084.319.4753.5697.8008.752.3255.1823.7129.2734 1.1621.2734.4362 0 .8138-.0911 1.1328-.2734.3255-.1823.5925-.433.8008-.752.2083-.319.3613-.6901.459-1.1133.1042-.4231.1562-.8724.1562-1.34762v-.2246c0-.46876-.052-.91146-.1562-1.32813-.0977-.42318-.2539-.79753-.4688-1.12305-.2083-.32552-.4752-.57942-.8007-.76172-.319-.1888-.6999-.2832-1.1426-.2832-.4427 0-.8268.0944-1.1524.2832-.319.1823-.5826.4362-.791.76172-.2083.32552-.3613.69987-.459 1.12305-.0976.41667-.1464.85937-.1464 1.32813Z"/>
</svg>